<?xml version="1.0" encoding="UTF-8"?>
<!-- Generator: Adobe Illustrator 23.0.1, SVG Export Plug-In . SVG Version: 6.00 Build 0)  -->
<svg xmlns="http://www.w3.org/2000/svg" xmlns:xlink="http://www.w3.org/1999/xlink" version="1.1" id="Warstwa_1" x="0px" y="0px" viewBox="0 0 1388.3 182.4" style="enable-background:new 0 0 1388.3 182.4;" xml:space="preserve">
<style type="text/css">
	.st0{fill:#838383;}
	.st1{fill-rule:evenodd;clip-rule:evenodd;fill:#838383;}
	.st2{fill:#050505;}
</style>
<g>
	<g>
		<g>
			<path id="SVGID_1_" class="st0" d="M1133.3,37.1c-0.8,2-1.9,3.7-3.4,5.2c-1.5,1.4-3.3,2.5-5.4,3.2s-4.4,1.1-7,1.1h-19.9V71h-5.4     V13.9h25.4c2.6,0,4.9,0.4,7,1.1c2.1,0.7,3.9,1.8,5.4,3.2c1.5,1.4,2.6,3.1,3.4,5.2c0.8,2,1.2,4.3,1.2,6.9     C1134.5,32.8,1134.1,35.1,1133.3,37.1L1133.3,37.1z M1125.5,21.4c-2.3-1.9-5.4-2.9-9.2-2.9h-18.7v23.4h18.7c3.8,0,6.9-1,9.2-2.9     c2.3-1.9,3.5-4.9,3.5-8.8S1127.9,23.4,1125.5,21.4L1125.5,21.4z M1155.8,35.2c-1.9,0.7-3.5,1.7-4.8,3.1c-1.4,1.3-2.4,2.9-3.2,4.8     c-0.7,1.8-1.1,3.9-1.1,6v22h-5V29.8h4.6v9.7h0.2c1.3-3.4,3.3-5.9,6-7.8c2.7-1.8,5.9-2.6,9.6-2.5v5     C1159.7,34.1,1157.6,34.4,1155.8,35.2L1155.8,35.2z M1200.1,51.8h-31.8c0,1.8,0.3,3.7,0.8,5.6c0.5,1.9,1.3,3.7,2.4,5.2     s2.5,2.8,4.2,3.8s3.8,1.5,6.2,1.5c3.7,0,6.6-1,8.6-2.9c2.1-1.9,3.5-4.5,4.3-7.7h5c-1.1,4.7-3,8.3-5.9,10.9s-6.9,3.8-12.1,3.8     c-3.3,0-6.1-0.6-8.4-1.7c-2.4-1.1-4.3-2.7-5.8-4.7s-2.6-4.3-3.3-7c-0.7-2.6-1.1-5.4-1.1-8.4c0-2.7,0.4-5.4,1.1-8s1.8-4.9,3.3-7     s3.4-3.7,5.8-5s5.2-1.9,8.4-1.9c3.3,0,6.1,0.7,8.5,2c2.3,1.3,4.3,3.1,5.7,5.2c1.5,2.2,2.5,4.6,3.2,7.4     C1199.9,46,1200.2,48.9,1200.1,51.8L1200.1,51.8z M1194,42c-0.6-1.8-1.5-3.3-2.6-4.7s-2.5-2.5-4.1-3.3s-3.4-1.2-5.4-1.2     c-2.1,0-3.9,0.4-5.5,1.2s-3,1.9-4.1,3.3c-1.1,1.4-2,2.9-2.7,4.7s-1.1,3.6-1.3,5.5h26.7C1195,45.6,1194.7,43.8,1194,42L1194,42z      M1258.9,71V43.3c0-3.4-0.7-6-2.2-7.8c-1.4-1.8-4-2.7-7.6-2.7c-2.2,0-4,0.4-5.4,1.2s-2.6,1.9-3.4,3.3c-0.9,1.4-1.5,3-1.8,4.8     s-0.5,3.6-0.5,5.6V71h-5V43c0-1.4-0.1-2.7-0.4-4s-0.8-2.3-1.4-3.3c-0.7-0.9-1.6-1.7-2.7-2.2s-2.5-0.8-4.1-0.8     c-2.1,0-4,0.4-5.6,1.2s-2.9,1.8-3.8,3.2c-1,1.4-1.7,3-2.2,4.8s-0.7,3.9-0.7,6v23h-5V29.8h4.6v7h0.2c1.3-2.6,3.1-4.6,5.2-6     c2.2-1.4,4.9-2.2,8.3-2.2c2.7,0,5.2,0.7,7.4,2c2.2,1.3,3.7,3.4,4.4,6.1c1.2-2.7,3-4.7,5.4-6.1c2.4-1.3,5-2,7.7-2     c9.1,0,13.7,4.8,13.7,14.5v28L1258.9,71L1258.9,71z M1273.6,71V29.8h5V71H1273.6L1273.6,71z M1273.6,13.9h5V22h-5V13.9     L1273.6,13.9z M1317.1,71v-7.4h-0.2c-1.3,2.8-3.3,4.9-5.8,6.4s-5.3,2.2-8.4,2.2c-2.6,0-4.8-0.4-6.7-1.1c-1.8-0.7-3.3-1.7-4.5-3.1     c-1.1-1.3-2-3-2.5-4.9s-0.8-4.1-0.8-6.6V29.8h5v26.9c0.1,3.7,1,6.6,2.6,8.5s4.4,2.9,8.4,2.9c2.2,0,4.1-0.5,5.6-1.4     s2.8-2.2,3.8-3.7c1-1.5,1.8-3.3,2.2-5.3s0.7-4,0.7-6.1V29.8h5V71H1317.1L1317.1,71z M1383.3,71V43.3c0-3.4-0.7-6-2.2-7.8     c-1.4-1.8-4-2.7-7.6-2.7c-2.2,0-4,0.4-5.4,1.2s-2.6,1.9-3.4,3.3c-0.9,1.4-1.5,3-1.8,4.8s-0.5,3.6-0.5,5.6V71h-5V43     c0-1.4-0.1-2.7-0.4-4s-0.8-2.3-1.4-3.3c-0.7-0.9-1.6-1.7-2.7-2.2s-2.5-0.8-4.1-0.8c-2.1,0-4,0.4-5.6,1.2s-2.9,1.8-3.8,3.2     c-1,1.4-1.7,3-2.2,4.8s-0.7,3.9-0.7,6v23h-5V29.8h4.6v7h0.2c1.3-2.6,3.1-4.6,5.2-6c2.2-1.4,4.9-2.2,8.3-2.2c2.7,0,5.2,0.7,7.4,2     c2.2,1.3,3.7,3.4,4.4,6.1c1.2-2.7,3-4.7,5.4-6.1c2.4-1.3,5-2,7.7-2c9.1,0,13.7,4.8,13.7,14.5v28L1383.3,71L1383.3,71z      M1126.5,114.7c0.8,0.7,1.7,1.3,2.8,1.7c1,0.4,2.1,0.8,3.3,1l13.9,3.4c2,0.5,3.9,1.2,5.7,2c1.8,0.8,3.4,1.7,4.7,2.9     s2.4,2.5,3.2,4.2c0.8,1.7,1.2,3.7,1.2,6c0,0.6-0.1,1.5-0.2,2.6s-0.5,2.2-1,3.4s-1.2,2.4-2.2,3.6c-0.9,1.2-2.2,2.3-3.8,3.3     c-1.6,1-3.6,1.8-6,2.4c-2.4,0.6-5.3,0.9-8.6,0.9c-3.4,0-6.5-0.4-9.4-1.2s-5.3-2-7.4-3.6c-2-1.6-3.6-3.7-4.7-6.2s-1.6-5.5-1.4-9     h5.4c-0.1,2.9,0.4,5.4,1.4,7.4s2.3,3.5,4,4.7s3.7,2,6,2.5s4.7,0.8,7.4,0.8c1.5,0,3.1-0.2,4.9-0.6c1.8-0.4,3.4-1.1,4.9-2     s2.8-2.1,3.8-3.6s1.5-3.2,1.5-5.3c0-1.6-0.4-3-1.1-4.2s-1.7-2.2-2.8-3c-1.1-0.8-2.4-1.5-3.8-2s-2.7-0.9-4.1-1.2l-12.7-3.1     c-1.7-0.4-3.3-1-4.8-1.6c-1.6-0.6-2.9-1.5-4.1-2.6s-2.1-2.4-2.8-3.9c-0.7-1.5-1.1-3.4-1.1-5.7c0-1.4,0.3-3,0.8-4.9s1.5-3.6,3-5.3     c1.5-1.7,3.5-3.1,6-4.2c2.6-1.1,5.8-1.7,9.8-1.7c2.8,0,5.5,0.4,8.1,1.1s4.8,1.9,6.7,3.4c1.9,1.5,3.5,3.3,4.6,5.6     c1.1,2.2,1.7,4.8,1.7,7.7h-5.4c-0.1-2.2-0.6-4.1-1.5-5.7s-2-3-3.4-4.1s-3-1.9-4.9-2.5c-1.8-0.6-3.8-0.8-5.8-0.8     c-1.9,0-3.7,0.2-5.4,0.6c-1.7,0.4-3.3,1-4.6,1.9c-1.3,0.9-2.4,2-3.2,3.5c-0.8,1.4-1.2,3.2-1.2,5.4c0,1.3,0.2,2.5,0.7,3.5     C1125.1,113.2,1125.7,114,1126.5,114.7L1126.5,114.7z M1203.7,131.8h-31.8c0,1.8,0.3,3.7,0.8,5.6c0.5,1.9,1.3,3.7,2.4,5.2     s2.5,2.8,4.2,3.8s3.8,1.5,6.2,1.5c3.7,0,6.6-1,8.6-2.9c2.1-1.9,3.5-4.5,4.3-7.7h5c-1.1,4.7-3,8.3-5.9,10.9     c-2.9,2.6-6.9,3.8-12.1,3.8c-3.3,0-6.1-0.6-8.4-1.7c-2.4-1.1-4.3-2.7-5.8-4.7s-2.6-4.3-3.3-7s-1.1-5.4-1.1-8.4     c0-2.7,0.4-5.4,1.1-8s1.8-4.9,3.3-7s3.4-3.7,5.8-5s5.2-1.9,8.4-1.9c3.3,0,6.1,0.7,8.5,2c2.3,1.3,4.3,3.1,5.7,5.2     c1.5,2.2,2.5,4.6,3.2,7.4C1203.5,126,1203.8,128.9,1203.7,131.8L1203.7,131.8z M1197.6,122c-0.6-1.8-1.5-3.3-2.6-4.7     c-1.1-1.4-2.5-2.5-4.1-3.3s-3.4-1.2-5.4-1.2c-2.1,0-3.9,0.4-5.5,1.2c-1.6,0.8-3,1.9-4.1,3.3s-2,2.9-2.7,4.7     c-0.7,1.8-1.1,3.6-1.3,5.5h26.7C1198.6,125.6,1198.3,123.8,1197.6,122L1197.6,122z M1224.6,115.2c-1.9,0.7-3.5,1.7-4.8,3.1     c-1.4,1.3-2.4,2.9-3.2,4.8c-0.7,1.8-1.1,3.9-1.1,6v22h-5v-41.3h4.6v9.7h0.2c1.3-3.4,3.3-5.9,6-7.8c2.7-1.8,5.9-2.6,9.6-2.5v5     C1228.6,114.1,1226.5,114.4,1224.6,115.2L1224.6,115.2z M1252.3,151h-5.4l-15.9-41.3h5.6l13,36.2h0.2l12.8-36.2h5.2L1252.3,151     L1252.3,151z M1272.8,151v-41.3h5V151H1272.8L1272.8,151z M1272.8,93.9h5v8.1h-5V93.9L1272.8,93.9z M1312.8,115.4     c-1.9-1.8-4.5-2.6-7.8-2.6c-2.4,0-4.5,0.5-6.3,1.5s-3.3,2.3-4.5,4s-2.1,3.5-2.7,5.6s-0.9,4.3-0.9,6.4c0,2.2,0.3,4.3,0.9,6.4     c0.6,2.1,1.5,4,2.7,5.6c1.2,1.7,2.7,3,4.5,4s3.9,1.5,6.3,1.5c1.5,0,3-0.3,4.4-0.9c1.4-0.6,2.6-1.4,3.7-2.4s1.9-2.3,2.6-3.7     s1.1-3,1.3-4.7h5c-0.7,5-2.5,8.9-5.5,11.7s-6.8,4.2-11.5,4.2c-3.1,0-5.9-0.6-8.4-1.7c-2.4-1.1-4.5-2.7-6.1-4.7     c-1.7-2-2.9-4.3-3.8-6.9c-0.9-2.6-1.3-5.5-1.3-8.4c0-3,0.4-5.8,1.3-8.4s2.1-4.9,3.8-6.9c1.7-2,3.7-3.5,6.1-4.7s5.2-1.8,8.4-1.8     c4.4,0,8.2,1.2,11.2,3.5c3.1,2.3,4.9,5.9,5.5,10.6h-5C1315.9,119.6,1314.7,117.2,1312.8,115.4L1312.8,115.4z M1363.8,131.8H1332     c0,1.8,0.3,3.7,0.8,5.6c0.5,1.9,1.3,3.7,2.4,5.2s2.5,2.8,4.2,3.8s3.8,1.5,6.2,1.5c3.7,0,6.6-1,8.6-2.9c2.1-1.9,3.5-4.5,4.3-7.7h5     c-1.1,4.7-3,8.3-5.9,10.9c-2.9,2.6-6.9,3.8-12.1,3.8c-3.3,0-6.1-0.6-8.4-1.7c-2.4-1.1-4.3-2.7-5.8-4.7s-2.6-4.3-3.3-7     s-1.1-5.4-1.1-8.4c0-2.7,0.4-5.4,1.1-8s1.8-4.9,3.3-7s3.4-3.7,5.8-5s5.2-1.9,8.4-1.9c3.3,0,6.1,0.7,8.5,2     c2.3,1.3,4.3,3.1,5.7,5.2c1.5,2.2,2.5,4.6,3.2,7.4C1363.6,126,1363.9,128.9,1363.8,131.8L1363.8,131.8z M1357.7,122     c-0.6-1.8-1.5-3.3-2.6-4.7c-1.1-1.4-2.5-2.5-4.1-3.3s-3.4-1.2-5.4-1.2c-2.1,0-3.9,0.4-5.5,1.2c-1.6,0.8-3,1.9-4.1,3.3     s-2,2.9-2.7,4.7c-0.7,1.8-1.1,3.6-1.3,5.5h26.7C1358.7,125.6,1358.3,123.8,1357.7,122L1357.7,122z"></path>
		</g>
	</g>
	<g>
		<g>
			<polygon id="SVGID_3_" class="st1" points="1031.2,16.3 1035.5,16.3 1035.5,148 1031.2,148    "></polygon>
		</g>
	</g>
	<g>
		<g>
			<path id="SVGID_5_" class="st2" d="M110.4,142.8L95,99.8H35.2l-15.8,43H0L55.2,0H76l55.2,142.8H110.4L110.4,142.8z M65.5,17.2     h-0.4l-24,66.6H89L65.5,17.2L65.5,17.2z M189.1,145.2c-10.5,0-25.5-4-33-16.2h-0.4v53.4h-16.8v-143h16.8v14h0.4     C161.6,42,174.7,37,188.7,37c31.5,0,47.1,25.2,47.1,54.4C235.8,120.6,220.4,145.2,189.1,145.2L189.1,145.2z M186.4,52     c-22.6,0-31.3,19.6-31.3,39c0,20.4,9.1,39.2,32.2,39.2c22.9,0,30.7-19.8,30.7-40C218,70.8,208.1,52,186.4,52L186.4,52z      M302.5,145.2c-10.5,0-25.5-4-33-16.2H269v53.4h-16.8v-143H269v14h0.4C275,42,288,37,302.1,37c31.5,0,47.1,25.2,47.1,54.4     S333.7,145.2,302.5,145.2L302.5,145.2z M299.7,52c-22.6,0-31.3,19.6-31.3,39c0,20.4,9.1,39.2,32.2,39.2c22.9,0,30.7-19.8,30.7-40     C331.4,70.8,321.5,52,299.7,52L299.7,52z M366,142.8V0h16.8v142.8H366L366,142.8z M493.8,96.2h-76.6c-0.6,18,9.5,34,31.9,34     c13.8,0,23.5-6.8,26.5-20.2h16.6c-4.5,22.8-20.8,35.2-43.7,35.2c-32.6,0-48.1-22.8-49.1-54.4c0-31,20.2-53.8,48.1-53.8     C483.7,37,494.8,71.2,493.8,96.2L493.8,96.2z M446.5,52c-17.6,0-28.1,13.4-29.3,29.2H476C475.2,65,463.1,52,446.5,52L446.5,52z      M605.9,142.8V72.4h-90.2v70.4H507V0h8.7v64.8h90.2V0h8.7v142.8H605.9L605.9,142.8z M676.2,145.2c-29.9,0-46.7-24.6-46.7-53.8     s16.8-53.8,46.7-53.8s46.7,24.6,46.7,53.8S706,145.2,676.2,145.2L676.2,145.2z M676.2,44.2c-25.5,0-39.2,22.6-39.2,47.2     s13.6,47.2,39.2,47.2c25.5,0,39.2-22.6,39.2-47.2C715.3,66.8,701.7,44.2,676.2,44.2L676.2,44.2z M864.1,142.8V72.4     c0-26.2-18.4-28.2-24.3-28.2C821.4,44.2,808,57.4,808,82v60.8h-7.5V72.4c0-25.8-17.4-28.2-23.9-28.2c-14.4,0-32.2,11.4-32.2,37.8     v60.8h-7.5V40h7.5v21h0.4c3.2-13,16.6-23.4,31.9-23.4c19.4,0,28.5,11.2,30.7,21.8h0.4c5.9-14,15.8-21.8,32.2-21.8     c18.4,0,31.9,10.8,31.9,35v70.2L864.1,142.8L864.1,142.8z M975.1,92.4H893c-0.4,24.2,12.3,46.2,37.4,46.2     c19.2,0,32.8-11.6,36.4-30.6h7.5c-4,24-19.8,37.2-43.9,37.2c-29.7,0-45.3-23.6-44.9-52c-0.4-28.2,14.2-55.6,44.9-55.6     C962.2,37.6,976.5,63,975.1,92.4L975.1,92.4z M930.4,44.2c-22.6,0-35.8,21.2-37.4,41.6h74.6C967.2,64.2,953.7,44.2,930.4,44.2     L930.4,44.2z"></path>
		</g>
	</g>
</g>
</svg>
